<svg width="142" height="52" viewBox="0 0 142 52" fill="none" xmlns="http://www.w3.org/2000/svg">
<rect width="142" height="52" fill="#D9D9D9"/>
<path d="M38.4538 35V18.2727H41.9904V32.0842H49.1616V35H38.4538ZM66.2237 26.6364C66.2237 28.4605 65.878 30.0123 65.1864 31.2919C64.5004 32.5715 63.5638 33.5489 62.3768 34.2241C61.1952 34.8938 59.8666 35.2287 58.391 35.2287C56.9045 35.2287 55.5704 34.8911 54.3888 34.2159C53.2073 33.5407 52.2734 32.5633 51.5874 31.2837C50.9013 30.0041 50.5582 28.455 50.5582 26.6364C50.5582 24.8123 50.9013 23.2604 51.5874 21.9808C52.2734 20.7012 53.2073 19.7266 54.3888 19.0568C55.5704 18.3816 56.9045 18.044 58.391 18.044C59.8666 18.044 61.1952 18.3816 62.3768 19.0568C63.5638 19.7266 64.5004 20.7012 65.1864 21.9808C65.878 23.2604 66.2237 24.8123 66.2237 26.6364ZM62.6381 26.6364C62.6381 25.4548 62.4612 24.4583 62.1072 23.647C61.7588 22.8357 61.266 22.2204 60.6289 21.8011C59.9918 21.3819 59.2459 21.1722 58.391 21.1722C57.5361 21.1722 56.7901 21.3819 56.1531 21.8011C55.516 22.2204 55.0205 22.8357 54.6665 23.647C54.3181 24.4583 54.1438 25.4548 54.1438 26.6364C54.1438 27.8179 54.3181 28.8144 54.6665 29.6257C55.0205 30.437 55.516 31.0523 56.1531 31.4716C56.7901 31.8909 57.5361 32.1005 58.391 32.1005C59.2459 32.1005 59.9918 31.8909 60.6289 31.4716C61.266 31.0523 61.7588 30.437 62.1072 29.6257C62.4612 28.8144 62.6381 27.8179 62.6381 26.6364ZM79.9351 23.6797C79.8208 23.2822 79.6601 22.931 79.4532 22.6261C79.2463 22.3157 78.9931 22.0543 78.6936 21.842C78.3996 21.6242 78.062 21.4581 77.6808 21.3438C77.3051 21.2294 76.8886 21.1722 76.4312 21.1722C75.5763 21.1722 74.8249 21.3846 74.1769 21.8093C73.5344 22.234 73.0335 22.852 72.6741 23.6634C72.3147 24.4692 72.135 25.4548 72.135 26.62C72.135 27.7853 72.312 28.7763 72.6659 29.593C73.0199 30.4098 73.5208 31.0333 74.1688 31.4634C74.8167 31.8881 75.5818 32.1005 76.4639 32.1005C77.2643 32.1005 77.9477 31.9589 78.5139 31.6758C79.0857 31.3872 79.5213 30.9815 79.8208 30.4588C80.1257 29.9361 80.2781 29.3181 80.2781 28.6048L80.9969 28.7109H76.6844V26.0483H83.684V28.1555C83.684 29.6257 83.3737 30.889 82.7529 31.9453C82.1322 32.9962 81.2773 33.8075 80.1883 34.3793C79.0993 34.9455 77.8524 35.2287 76.4475 35.2287C74.8794 35.2287 73.5017 34.8829 72.3147 34.1914C71.1277 33.4944 70.202 32.5062 69.5377 31.2266C68.8789 29.9415 68.5494 28.4169 68.5494 26.6527C68.5494 25.2969 68.7455 24.0881 69.1375 23.0263C69.535 21.959 70.0904 21.0552 70.8037 20.3146C71.517 19.5741 72.3474 19.0105 73.2948 18.6239C74.2423 18.2373 75.2687 18.044 76.374 18.044C77.3215 18.044 78.2036 18.1829 79.0203 18.4606C79.8371 18.7328 80.5613 19.1194 81.1929 19.6204C81.83 20.1213 82.35 20.7176 82.7529 21.4091C83.1559 22.0952 83.4145 22.852 83.5289 23.6797H79.9351ZM101.712 26.6364C101.712 28.4605 101.366 30.0123 100.675 31.2919C99.9886 32.5715 99.0521 33.5489 97.8651 34.2241C96.6835 34.8938 95.3549 35.2287 93.8793 35.2287C92.3928 35.2287 91.0587 34.8911 89.8771 34.2159C88.6955 33.5407 87.7617 32.5633 87.0756 31.2837C86.3896 30.0041 86.0465 28.455 86.0465 26.6364C86.0465 24.8123 86.3896 23.2604 87.0756 21.9808C87.7617 20.7012 88.6955 19.7266 89.8771 19.0568C91.0587 18.3816 92.3928 18.044 93.8793 18.044C95.3549 18.044 96.6835 18.3816 97.8651 19.0568C99.0521 19.7266 99.9886 20.7012 100.675 21.9808C101.366 23.2604 101.712 24.8123 101.712 26.6364ZM98.1264 26.6364C98.1264 25.4548 97.9495 24.4583 97.5955 23.647C97.247 22.8357 96.7543 22.2204 96.1172 21.8011C95.4801 21.3819 94.7341 21.1722 93.8793 21.1722C93.0244 21.1722 92.2784 21.3819 91.6413 21.8011C91.0043 22.2204 90.5088 22.8357 90.1548 23.647C89.8063 24.4583 89.6321 25.4548 89.6321 26.6364C89.6321 27.8179 89.8063 28.8144 90.1548 29.6257C90.5088 30.437 91.0043 31.0523 91.6413 31.4716C92.2784 31.8909 93.0244 32.1005 93.8793 32.1005C94.7341 32.1005 95.4801 31.8909 96.1172 31.4716C96.7543 31.0523 97.247 30.437 97.5955 29.6257C97.9495 28.8144 98.1264 27.8179 98.1264 26.6364Z" fill="black"/>
</svg>
